<?xml version="1.0" encoding="utf-8"?>
<svg viewBox="26.007 12.11 556.874 586.618" xmlns="http://www.w3.org/2000/svg">
  <path d="M 110.91016 102.61914 L 110.91016 121.27637 L 49.46436 121.27637 L 49.46436 132.72168 L 107.2041 132.72168 L 107.2041 150.38184 L 49.46436 150.38184 L 49.46436 160.8584 L 110.91016 160.8584 L 110.91016 178.99414 L 26.00732 178.99414 L 26.00732 102.61914 L 110.91016 102.61914 Z" style="fill: rgb(0, 0, 0); stroke: rgb(0, 0, 0); stroke-opacity: 1; stroke-miterlimit: 4; stroke-linecap: round; stroke-linejoin: round; stroke-width: 0.17639px; stroke-dashoffset: 0px; fill-opacity: 1;" transform="matrix(1, 0, 0, -1, 0, 700.252686)"/>
  <path d="M 183.06836 102.61914 L 192.46973 102.61914 L 218.83301 153.53711 L 218.83301 102.61914 L 241.73047 102.61914 L 241.73047 178.99414 L 205.71826 178.99414 L 183.06836 130.55176 L 160.41846 178.99414 L 124.40625 178.99414 L 124.40625 102.61914 L 147.30322 102.61914 L 147.30322 153.53711 L 173.66699 102.61914 L 183.06836 102.61914 Z" style="fill: rgb(0, 0, 0); stroke: rgb(0, 0, 0); stroke-opacity: 1; stroke-miterlimit: 4; stroke-linecap: round; stroke-linejoin: round; stroke-width: 0.17639px; stroke-dashoffset: 0px; fill-opacity: 1;" transform="matrix(1, 0, 0, -1, 0, 700.252686)"/>
  <path d="M 91.47217 258.44922 C 160.59814 179.52344 314.31055 201.08789 434.79883 306.61621 C 555.28711 412.14355 596.9248 561.67236 527.79883 640.59863 C 458.67285 719.52441 304.96045 697.95947 184.47217 592.43164 C 63.98389 486.90381 22.34668 337.375 91.47217 258.44922 Z" style="fill: rgb(232, 16, 5); stroke: rgb(255, 0, 0); stroke-opacity: 1; stroke-miterlimit: 4; stroke-linecap: round; stroke-linejoin: round; stroke-width: 0.17639px; stroke-dashoffset: 0px; fill-opacity: 1;" transform="matrix(1, 0, 0, -1, 0, 700.252686)"/>
  <path d="M 288.89258 101.71777 C 302.4834 101.35352 316.08301 101.50391 329.66211 102.16992 L 336.11426 102.16992 C 344.86328 102.15332 352.35645 108.42871 353.87598 117.04395 L 353.87598 123.3418 L 353.87598 132.11523 L 330.4209 132.11523 L 330.4209 128.57129 C 330.36035 124.71094 327.33887 121.54688 323.48535 121.30957 C 311.39941 120.45801 299.26855 120.45801 287.18311 121.30957 C 283.27881 121.30957 280.10156 124.4502 280.05566 128.35352 L 280.05566 140.96582 L 280.05566 151.52832 C 280.42529 156.29492 284.22119 160.07813 288.98975 160.43066 C 300.55518 161.07422 312.14941 161.02051 323.70801 160.27051 C 326.98047 159.98438 329.54297 157.33008 329.71387 154.04883 L 329.71387 151.43945 L 352.82129 151.43945 L 352.82129 162.64941 C 351.78809 171.78711 344.50098 178.9541 335.34766 179.83594 C 317.04199 180.9707 298.68311 180.9707 280.37695 179.83594 C 272.94824 179.83594 265.80615 176.96875 260.43896 171.83301 C 259.01221 170.28418 257.98828 168.4082 257.4585 166.37109 C 256.87744 163.04102 256.5835 159.66699 256.57959 156.28613 L 256.57959 125.69629 L 256.57959 121.00293 C 257.20508 110.40527 265.99219 102.1377 276.60791 102.15723 C 280.69238 101.80078 284.79297 101.6543 288.89258 101.71777 Z" style="fill: rgb(0, 0, 0); stroke: rgb(0, 0, 0); stroke-opacity: 1; stroke-miterlimit: 4; stroke-linecap: round; stroke-linejoin: round; stroke-width: 0.17639px; stroke-dashoffset: 0px; fill-opacity: 1;" transform="matrix(1, 0, 0, -1, 0, 700.252686)"/>
  <path d="M 558.88477 102.61914 L 582.88086 102.61914 L 582.88086 178.99414 L 558.88477 178.99414 L 558.88477 102.61914 Z" style="fill: rgb(0, 0, 0); stroke: rgb(0, 0, 0); stroke-opacity: 1; stroke-miterlimit: 4; stroke-linecap: round; stroke-linejoin: round; stroke-width: 0.17639px; stroke-dashoffset: 0px; fill-opacity: 1;" transform="matrix(1, 0, 0, -1, 0, 700.252686)"/>
  <path d="M 499.36133 102.61914 L 553.36426 102.61914 L 553.36426 121.95117 L 499.36133 121.95117 L 499.36133 178.99414 L 475.36426 178.99414 L 475.36426 102.61914 L 499.36133 102.61914 Z" style="fill: rgb(0, 0, 0); stroke: rgb(0, 0, 0); stroke-opacity: 1; stroke-miterlimit: 4; stroke-linecap: round; stroke-linejoin: round; stroke-width: 0.17639px; stroke-dashoffset: 0px; fill-opacity: 1;" transform="matrix(1, 0, 0, -1, 0, 700.252686)"/>
  <path d="M 520.52344 661.69531 L 539.35059 650.60645" style="fill: none; stroke: rgb(255, 0, 0); stroke-opacity: 1; stroke-miterlimit: 4; stroke-linecap: round; stroke-linejoin: round; stroke-width: 0.17639px; stroke-dashoffset: 0px;" transform="matrix(1, 0, 0, -1, 0, 700.252686)"/>
  <path d="M 222.32178 454.0835 L 202.31885 464.82666" style="fill: none; stroke: rgb(255, 0, 0); stroke-opacity: 1; stroke-miterlimit: 4; stroke-linecap: round; stroke-linejoin: round; stroke-width: 0.17639px; stroke-dashoffset: 0px;" transform="matrix(1, 0, 0, -1, 0, 700.252686)"/>
  <path d="M 441.22168 636.1001 L 459.99609 624.57715" style="fill: none; stroke: rgb(255, 0, 0); stroke-opacity: 1; stroke-miterlimit: 4; stroke-linecap: round; stroke-linejoin: round; stroke-width: 0.17639px; stroke-dashoffset: 0px;" transform="matrix(1, 0, 0, -1, 0, 700.252686)"/>
  <path d="M 72.59619 452.54541 L 72.59619 512.12646 L 270.19727 579.26563 L 270.19727 519.68457 L 72.59619 452.54541 Z" style="fill: rgb(255, 234, 39); stroke: rgb(255, 255, 0); stroke-opacity: 1; stroke-miterlimit: 4; stroke-linecap: round; stroke-linejoin: round; stroke-width: 0.17639px; stroke-dashoffset: 0px; fill-opacity: 1;" transform="matrix(1, 0, 0, -1, 0, 700.252686)"/>
  <path d="M 270.19727 519.68457 L 72.59619 452.54541 L 91.5459 442.12939 L 289.14697 509.26855 L 270.19727 519.68457 Z" style="fill: rgb(186, 152, 6); stroke: rgb(206, 201, 19); stroke-opacity: 1; stroke-miterlimit: 4; stroke-linecap: round; stroke-linejoin: round; stroke-width: 0.17639px; stroke-dashoffset: 0px; fill-opacity: 1;" transform="matrix(1, 0, 0, -1, 0, 700.252686)"/>
  <path d="M 289.14697 509.26855 L 270.19727 519.68457 L 270.19727 579.26563 L 289.14697 568.84961 L 289.14697 509.26855 Z" style="fill: rgb(206, 178, 9); stroke: rgb(216, 210, 5); stroke-opacity: 1; stroke-miterlimit: 4; stroke-linecap: round; stroke-linejoin: round; stroke-width: 0.17639px; stroke-dashoffset: 0px; fill-opacity: 1;" transform="matrix(1, 0, 0, -1, 0, 700.252686)"/>
  <path d="M 289.14697 509.26855 L 97.55078 444.16992 L 97.55078 436.15234 L 295.15186 503.29102 L 295.15186 562.87207 L 289.14697 560.83203 L 289.14697 509.26855 Z" style="fill: rgb(0, 0, 0); stroke: rgb(153, 153, 153); stroke-opacity: 0.23999; stroke-miterlimit: 4; stroke-linecap: round; stroke-linejoin: round; stroke-width: 0.17639px; stroke-dashoffset: 0px; fill-opacity: 0.23999;" transform="matrix(1, 0, 0, -1, 0, 700.252686)"/>
  <path d="M 72.59619 270.43945 L 72.59619 330.02051 L 270.19727 397.15918 L 270.19727 337.57813 L 72.59619 270.43945 Z" style="fill: rgb(255, 234, 39); stroke: rgb(255, 255, 0); stroke-opacity: 1; stroke-miterlimit: 4; stroke-linecap: round; stroke-linejoin: round; stroke-width: 0.17639px; stroke-dashoffset: 0px; fill-opacity: 1;" transform="matrix(1, 0, 0, -1, 0, 700.252686)"/>
  <path d="M 270.19727 337.57813 L 72.59619 270.43945 L 91.5459 260.02344 L 289.14697 327.16211 L 270.19727 337.57813 Z" style="fill: rgb(186, 152, 6); stroke: rgb(206, 201, 19); stroke-opacity: 1; stroke-miterlimit: 4; stroke-linecap: round; stroke-linejoin: round; stroke-width: 0.17639px; stroke-dashoffset: 0px; fill-opacity: 1;" transform="matrix(1, 0, 0, -1, 0, 700.252686)"/>
  <path d="M 289.14697 327.16211 L 270.19727 337.57813 L 270.19727 397.15918 L 289.14697 386.74316 L 289.14697 327.16211 Z" style="fill: rgb(206, 178, 9); stroke: rgb(216, 210, 5); stroke-opacity: 1; stroke-miterlimit: 4; stroke-linecap: round; stroke-linejoin: round; stroke-width: 0.17639px; stroke-dashoffset: 0px; fill-opacity: 1;" transform="matrix(1, 0, 0, -1, 0, 700.252686)"/>
  <path d="M 289.14697 327.16211 L 97.55078 262.06348 L 97.55078 254.0459 L 295.15186 321.18457 L 295.15186 380.76563 L 289.14697 378.72559 L 289.14697 327.16211 Z" style="fill: rgb(0, 0, 0); stroke: rgb(153, 153, 153); stroke-opacity: 0.23999; stroke-miterlimit: 4; stroke-linecap: round; stroke-linejoin: round; stroke-width: 0.17639px; stroke-dashoffset: 0px; fill-opacity: 0.23999;" transform="matrix(1, 0, 0, -1, 0, 700.252686)"/>
  <path d="M 72.59619 361.57227 L 72.59619 421.25684 L 202.31885 464.82666 L 202.31885 405.1416 L 72.59619 361.57227 Z" style="fill: rgb(255, 234, 39); stroke: rgb(255, 255, 0); stroke-opacity: 1; stroke-miterlimit: 4; stroke-linecap: round; stroke-linejoin: round; stroke-width: 0.17639px; stroke-dashoffset: 0px; fill-opacity: 1;" transform="matrix(1, 0, 0, -1, 0, 700.252686)"/>
  <path d="M 202.31885 405.1416 L 202.31885 464.82666 L 222.32178 454.0835 L 222.32178 394.39844 L 202.31885 405.1416 Z" style="fill: rgb(206, 178, 9); stroke: rgb(216, 210, 5); stroke-opacity: 1; stroke-miterlimit: 4; stroke-linecap: round; stroke-linejoin: round; stroke-width: 0.17639px; stroke-dashoffset: 0px; fill-opacity: 1;" transform="matrix(1, 0, 0, -1, 0, 700.252686)"/>
  <path d="M 72.59619 361.57227 L 92.59863 350.82813 L 222.32178 394.39844 L 202.31885 405.1416 L 72.59619 361.57227 Z" style="fill: rgb(186, 152, 6); stroke: rgb(206, 201, 19); stroke-opacity: 1; stroke-miterlimit: 4; stroke-linecap: round; stroke-linejoin: round; stroke-width: 0.17639px; stroke-dashoffset: 0px; fill-opacity: 1;" transform="matrix(1, 0, 0, -1, 0, 700.252686)"/>
  <path d="M 98.60352 352.8457 L 98.60352 344.85156 L 228.32666 388.92773 L 228.32666 448.79102 L 222.32178 446.75098 L 222.32178 394.39844 L 98.60352 352.8457" style="fill: rgb(0, 0, 0); stroke: rgb(153, 153, 153); stroke-opacity: 0.23999; stroke-miterlimit: 4; stroke-linecap: round; stroke-linejoin: round; stroke-width: 0.17639px; stroke-dashoffset: 0px; fill-opacity: 0.23999;" transform="matrix(1, 0, 0, -1, 0, 700.252686)"/>
  <path d="M 520.52344 420.54297 L 520.52344 661.69531 L 471.7207 644.63916 L 471.7207 403.4873 L 520.52344 420.54297 Z" style="fill: rgb(255, 234, 39); stroke: rgb(255, 255, 0); stroke-opacity: 1; stroke-miterlimit: 4; stroke-linecap: round; stroke-linejoin: round; stroke-width: 0.17639px; stroke-dashoffset: 0px; fill-opacity: 1;" transform="matrix(1, 0, 0, -1, 0, 700.252686)"/>
  <path d="M 520.52344 420.54297 L 471.7207 403.4873 L 490.54785 392.39844 L 539.35059 409.45459 L 520.52344 420.54297 Z" style="fill: rgb(186, 152, 6); stroke: rgb(206, 201, 19); stroke-opacity: 1; stroke-miterlimit: 4; stroke-linecap: round; stroke-linejoin: round; stroke-width: 0.17639px; stroke-dashoffset: 0px; fill-opacity: 1;" transform="matrix(1, 0, 0, -1, 0, 700.252686)"/>
  <path d="M 539.35059 409.45459 L 520.52344 420.54297 L 520.52344 661.69531 L 539.35059 650.60645 L 539.35059 409.45459 Z" style="fill: rgb(206, 178, 9); stroke: rgb(216, 210, 5); stroke-opacity: 1; stroke-miterlimit: 4; stroke-linecap: round; stroke-linejoin: round; stroke-width: 0.17639px; stroke-dashoffset: 0px; fill-opacity: 1;" transform="matrix(1, 0, 0, -1, 0, 700.252686)"/>
  <path d="M 392.36035 462.33594 L 392.36035 619.4585 L 441.22168 636.1001 L 441.22168 478.97705 L 392.36035 462.33594 Z" style="fill: rgb(255, 234, 39); stroke: rgb(255, 255, 0); stroke-opacity: 1; stroke-miterlimit: 4; stroke-linecap: round; stroke-linejoin: round; stroke-width: 0.17639px; stroke-dashoffset: 0px; fill-opacity: 1;" transform="matrix(1, 0, 0, -1, 0, 700.252686)"/>
  <path d="M 441.22168 478.97705 L 392.36035 462.33594 L 411.13574 450.81348 L 459.99609 467.45459 L 441.22168 478.97705 Z" style="fill: rgb(186, 152, 6); stroke: rgb(206, 201, 19); stroke-opacity: 1; stroke-miterlimit: 4; stroke-linecap: round; stroke-linejoin: round; stroke-width: 0.17639px; stroke-dashoffset: 0px; fill-opacity: 1;" transform="matrix(1, 0, 0, -1, 0, 700.252686)"/>
  <path d="M 466.95605 463.18701 L 466.95605 619.9375 L 459.99609 617.50488 L 459.99609 467.45459 L 418.14844 453.20166 L 418.14844 446.12891 L 466.95605 463.18701 Z" style="fill: rgb(0, 0, 0); stroke: rgb(153, 153, 153); stroke-opacity: 0.23999; stroke-miterlimit: 4; stroke-linecap: round; stroke-linejoin: round; stroke-width: 0.17639px; stroke-dashoffset: 0px; fill-opacity: 0.23999;" transform="matrix(1, 0, 0, -1, 0, 700.252686)"/>
  <path d="M 441.22168 636.1001 L 459.99609 624.57715 L 459.99609 467.45459 L 441.22168 478.97705 L 441.22168 636.1001 Z" style="fill: rgb(206, 178, 9); stroke: rgb(216, 210, 5); stroke-opacity: 1; stroke-miterlimit: 4; stroke-linecap: round; stroke-linejoin: round; stroke-width: 0.17639px; stroke-dashoffset: 0px; fill-opacity: 1;" transform="matrix(1, 0, 0, -1, 0, 700.252686)"/>
  <path d="M 361.06445 611.40967 L 379.89063 600.3208" style="fill: none; stroke: rgb(255, 0, 0); stroke-opacity: 1; stroke-miterlimit: 4; stroke-linecap: round; stroke-linejoin: round; stroke-width: 0.17639px; stroke-dashoffset: 0px;" transform="matrix(1, 0, 0, -1, 0, 700.252686)"/>
  <path d="M 361.06445 370.25781 L 361.06445 611.40967 L 312.26172 594.35352 L 312.26172 353.20117 L 361.06445 370.25781 Z" style="fill: rgb(255, 234, 39); stroke: rgb(255, 255, 0); stroke-opacity: 1; stroke-miterlimit: 4; stroke-linecap: round; stroke-linejoin: round; stroke-width: 0.17639px; stroke-dashoffset: 0px; fill-opacity: 1;" transform="matrix(1, 0, 0, -1, 0, 700.252686)"/>
  <path d="M 361.06445 370.25781 L 312.26172 353.20117 L 331.08789 342.11328 L 379.89063 359.16895 L 361.06445 370.25781 Z" style="fill: rgb(186, 152, 6); stroke: rgb(206, 201, 19); stroke-opacity: 1; stroke-miterlimit: 4; stroke-linecap: round; stroke-linejoin: round; stroke-width: 0.17639px; stroke-dashoffset: 0px; fill-opacity: 1;" transform="matrix(1, 0, 0, -1, 0, 700.252686)"/>
  <path d="M 379.89063 359.16895 L 361.06445 370.25781 L 361.06445 611.40967 L 379.89063 600.3208 L 379.89063 359.16895 Z" style="fill: rgb(206, 178, 9); stroke: rgb(216, 210, 5); stroke-opacity: 1; stroke-miterlimit: 4; stroke-linecap: round; stroke-linejoin: round; stroke-width: 0.17639px; stroke-dashoffset: 0px; fill-opacity: 1;" transform="matrix(1, 0, 0, -1, 0, 700.252686)"/>
  <path d="M 546.31055 464.42822 C 544.1748 458.45996 541.85352 452.55957 539.35059 446.73584 L 539.35059 409.45459 L 515.49512 401.11768 C 513.60156 398.05566 511.66406 395.021 509.68457 392.01367 L 546.31055 404.81445 L 546.31055 464.42822 Z" style="fill: rgb(153, 153, 153); stroke: rgb(153, 153, 153); stroke-opacity: 1; stroke-miterlimit: 4; stroke-linecap: round; stroke-linejoin: round; stroke-width: 0.17639px; stroke-dashoffset: 0px; fill-opacity: 1;" transform="matrix(1, 0, 0, -1, 0, 700.252686)"/>
  <path d="M 497.50781 394.83105 L 497.50781 387.75879 L 509.68457 392.01367 C 511.66406 395.021 513.60156 398.05566 515.49512 401.11768 L 497.50781 394.83105 Z" style="fill: rgb(0, 0, 0); stroke: rgb(153, 153, 153); stroke-opacity: 0.23999; stroke-miterlimit: 4; stroke-linecap: round; stroke-linejoin: round; stroke-width: 0.17639px; stroke-dashoffset: 0px; fill-opacity: 0.23999;" transform="matrix(1, 0, 0, -1, 0, 700.252686)"/>
  <path d="M 539.35059 446.73584 C 541.88379 452.63672 544.20508 458.53809 546.31055 464.42822" style="fill: none; stroke: rgb(255, 0, 0); stroke-opacity: 1; stroke-miterlimit: 4; stroke-linecap: round; stroke-linejoin: round; stroke-width: 0.17639px; stroke-dashoffset: 0px;" transform="matrix(1, 0, 0, -1, 0, 700.252686)"/>
  <path d="M 539.35059 625.14746 L 539.35059 643.53369 L 546.31055 645.9668 L 546.31055 612.69238 C 544.22168 616.96875 541.89844 621.12695 539.35059 625.14746 Z" style="fill: rgb(153, 153, 153); stroke: rgb(153, 153, 153); stroke-opacity: 1; stroke-miterlimit: 4; stroke-linecap: round; stroke-linejoin: round; stroke-width: 0.17639px; stroke-dashoffset: 0px; fill-opacity: 1;" transform="matrix(1, 0, 0, -1, 0, 700.252686)"/>
  <path d="M 539.35059 625.14746 L 539.35059 446.73584 C 541.85352 452.55957 544.1748 458.45996 546.31055 464.42822 L 546.31055 612.69238 C 544.22168 616.96875 541.89844 621.12695 539.35059 625.14746 Z" style="fill: rgb(0, 0, 0); stroke: rgb(153, 153, 153); stroke-opacity: 0.23999; stroke-miterlimit: 4; stroke-linecap: round; stroke-linejoin: round; stroke-width: 0.17639px; stroke-dashoffset: 0px; fill-opacity: 0.23999;" transform="matrix(1, 0, 0, -1, 0, 700.252686)"/>
  <path d="M 386.85156 595.68066 L 379.89063 593.24805 L 379.89063 359.16895 L 338.04883 344.5459 L 338.04883 337.47266 L 386.85156 354.52832 L 386.85156 595.68066 Z" style="fill: rgb(0, 0, 0); stroke: rgb(153, 153, 153); stroke-opacity: 0.23999; stroke-miterlimit: 4; stroke-linecap: round; stroke-linejoin: round; stroke-width: 0.17639px; stroke-dashoffset: 0px; fill-opacity: 0.23999;" transform="matrix(1, 0, 0, -1, 0, 700.252686)"/>
  <path d="M 394.674 -179.16 L 432.135 -179.119 L 471.933 -102.603 C 471.933 -102.45 445.381 -102.528 445.381 -102.528 L 438.541 -115.461 L 388.116 -115.488 L 381.401 -102.471 L 354.672 -102.536 L 394.674 -179.16 Z M 411.961 -161.401 L 397.072 -132.687 L 429.552 -132.559 L 414.684 -161.372 L 411.961 -161.401 Z" style="" transform="matrix(1, 0, 0, 1, 0, 700.252686)"/>
</svg>