<?xml version="1.0" encoding="utf-8"?>
<svg version="1.1" id="Layer_1" x="0px" y="0px" viewBox="0 0 330 330" style="enable-background:new 0 0 330 330;" xmlns="http://www.w3.org/2000/svg">
  <path id="XMLID_222_" d="M 250.606 154.389 L 100.606 4.393 C 94.749 -1.465 85.251 -1.465 79.393 4.394 C 73.536 10.252 73.536 19.749 79.394 25.607 L 218.787 164.997 L 79.393 304.394 C 73.536 310.252 73.536 319.749 79.394 325.607 C 82.322 328.536 86.161 330 90 330 C 93.839 330 97.678 328.536 100.607 325.606 L 250.606 175.602 C 253.42 172.789 255 168.974 255 164.996 C 255 161.018 253.42 157.202 250.606 154.389 Z" transform="matrix(0, -1, 1, 0, 0.000383, 329.999999)"/>
  <g/>
  <g/>
  <g/>
  <g/>
  <g/>
  <g/>
  <g/>
  <g/>
  <g/>
  <g/>
  <g/>
  <g/>
  <g/>
  <g/>
  <g/>
</svg>